<?xml version="1.0" encoding="iso-8859-1"?>
<!-- Generator: Adobe Illustrator 19.0.0, SVG Export Plug-In . SVG Version: 6.00 Build 0)  -->
<svg version="1.1" id="Capa_1" xmlns="http://www.w3.org/2000/svg" xmlns:xlink="http://www.w3.org/1999/xlink" x="0px" y="0px"
	 viewBox="0 0 512 512" style="enable-background:new 0 0 512 512;" xml:space="preserve">
<path style="fill:#C49A6C;" d="M256,426.667c-15.727,0.034-31.326-2.859-45.995-8.533H8.533V435.2
	c0,9.429,7.637,17.067,17.067,17.067h460.8c9.429,0,17.067-7.637,17.067-17.067v-17.067H301.995
	C287.326,423.808,271.727,426.701,256,426.667z"/>
<g>
	<path style="fill:#FFEB99;" d="M8.533,418.133h201.472c-65.971-25.404-98.859-99.473-73.455-165.444s99.473-98.859,165.444-73.455
		s98.859,99.473,73.455,165.444c-13.005,33.766-39.689,60.45-73.455,73.455h201.472V145.067H8.533V418.133z M401.067,179.2h68.267
		v34.133h-68.267V179.2z M102.4,358.4c9.429,0,17.067,7.637,17.067,17.067c0,9.429-7.637,17.067-17.067,17.067
		s-17.067-7.637-17.067-17.067C85.333,366.037,92.971,358.4,102.4,358.4z"/>
	<polygon style="fill:#FFEB99;" points="324.267,59.733 187.733,59.733 162.133,110.933 349.867,110.933 	"/>
</g>
<path style="fill:#ACABB1;" d="M301.995,418.133L301.995,418.133c65.971-25.404,98.859-99.473,73.455-165.444
	c-25.404-65.971-99.473-98.859-165.444-73.455s-98.859,99.473-73.455,165.444c13.005,33.766,39.689,60.45,73.455,73.455l0,0
	C239.616,429.508,272.384,429.508,301.995,418.133z M162.133,298.667c0-51.84,42.027-93.867,93.867-93.867
	s93.867,42.027,93.867,93.867S307.84,392.533,256,392.533C204.169,392.499,162.167,350.498,162.133,298.667z"/>
<path style="fill:#78B9EB;" d="M349.867,298.667c0-51.84-42.027-93.867-93.867-93.867s-93.867,42.027-93.867,93.867
	S204.16,392.533,256,392.533C307.831,392.499,349.833,350.498,349.867,298.667z M315.733,298.667
	c-0.034-32.973-26.761-59.699-59.733-59.733C288.973,238.968,315.699,265.694,315.733,298.667z"/>
<g>
	<circle style="fill:#E6E7E8;" cx="102.4" cy="375.467" r="17.067"/>
	<polygon style="fill:#E6E7E8;" points="128,85.333 110.933,85.333 76.8,85.333 59.733,85.333 59.733,110.933 128,110.933 	"/>
	<rect x="384" y="85.333" style="fill:#E6E7E8;" width="68.267" height="25.6"/>
</g>
<path style="fill:#C49A6C;" d="M486.4,110.933H25.6C16.188,110.959,8.559,118.588,8.533,128v17.067h494.933V128
	C503.467,118.571,495.829,110.933,486.4,110.933z"/>
<g>
	<rect x="76.8" y="59.733" style="fill:#E6E7E8;" width="34.133" height="25.6"/>
	<rect x="401.067" y="179.2" style="fill:#E6E7E8;" width="68.267" height="34.133"/>
</g>
<g>
	<path style="fill:#231F20;" d="M256,196.267c-56.55,0-102.4,45.85-102.4,102.4s45.85,102.4,102.4,102.4s102.4-45.85,102.4-102.4
		C358.34,242.142,312.525,196.326,256,196.267z M256,384c-47.13,0-85.333-38.204-85.333-85.333S208.87,213.333,256,213.333
		s85.333,38.204,85.333,85.333C341.282,345.771,303.104,383.949,256,384z"/>
	<path style="fill:#231F20;" d="M256,230.4c-4.71,0-8.533,3.823-8.533,8.533c0,4.71,3.823,8.533,8.533,8.533
		c28.262,0.026,51.174,22.938,51.2,51.2c0,4.71,3.823,8.533,8.533,8.533c4.71,0,8.533-3.823,8.533-8.533
		C324.224,260.984,293.683,230.443,256,230.4z"/>
	<path style="fill:#231F20;" d="M102.4,401.067c14.14,0,25.6-11.46,25.6-25.6c0-14.14-11.46-25.6-25.6-25.6s-25.6,11.46-25.6,25.6
		C76.8,389.607,88.26,401.067,102.4,401.067z M102.4,366.933c4.71,0,8.533,3.823,8.533,8.533S107.11,384,102.4,384
		c-4.71,0-8.533-3.823-8.533-8.533S97.69,366.933,102.4,366.933z"/>
	<path style="fill:#231F20;" d="M486.4,102.4h-25.6V76.8h-85.333v25.6H355.14l-23.194-46.481c-1.451-2.91-4.429-4.736-7.68-4.719
		H187.733c-3.234,0-6.195,1.826-7.637,4.719L156.86,102.4h-20.326V76.8h-17.067V59.733c0-4.71-3.823-8.533-8.533-8.533H76.8
		c-4.71,0-8.533,3.823-8.533,8.533V76.8H51.2v25.6H25.6C11.46,102.4,0,113.86,0,128v307.2c0,14.14,11.46,25.6,25.6,25.6h460.8
		c14.14,0,25.6-11.46,25.6-25.6V128C512,113.86,500.54,102.4,486.4,102.4z M392.533,93.867h51.2v8.533h-51.2V93.867z
		 M193.007,68.267h125.986L336.06,102.4H175.94L193.007,68.267z M85.333,68.267H102.4V76.8H85.333V68.267z M68.267,93.867h51.2
		v8.533h-51.2V93.867z M17.067,128c0-4.71,3.823-8.533,8.533-8.533h460.8c4.71,0,8.533,3.823,8.533,8.533v8.533H17.067V128z
		 M494.933,409.6H335.36c61.363-43.827,75.571-129.101,31.744-190.464s-129.101-75.571-190.464-31.744
		s-75.571,129.101-31.744,190.464c8.755,12.262,19.482,22.98,31.744,31.744H17.067v-256h477.867V409.6z M298.667,409.6v0.657
		c-27.486,10.445-57.847,10.445-85.333,0V409.6h-1.587c-61.286-24.439-91.162-93.935-66.722-155.221s93.935-91.162,155.221-66.722
		s91.162,93.935,66.722,155.221c-12.143,30.455-36.267,54.579-66.722,66.722H298.667z M486.4,443.733H25.6
		c-4.71,0-8.533-3.823-8.533-8.533v-8.533H208.64c30.549,11.375,64.171,11.375,94.72,0h191.573v8.533
		C494.933,439.91,491.11,443.733,486.4,443.733z"/>
	<path style="fill:#231F20;" d="M401.067,221.867h68.267c4.71,0,8.533-3.823,8.533-8.533V179.2c0-4.71-3.823-8.533-8.533-8.533
		h-68.267c-4.71,0-8.533,3.823-8.533,8.533v34.133C392.533,218.044,396.356,221.867,401.067,221.867z M409.6,187.733h51.2V204.8
		h-51.2V187.733z"/>
</g>
<g>
</g>
<g>
</g>
<g>
</g>
<g>
</g>
<g>
</g>
<g>
</g>
<g>
</g>
<g>
</g>
<g>
</g>
<g>
</g>
<g>
</g>
<g>
</g>
<g>
</g>
<g>
</g>
<g>
</g>
</svg>
